<svg aria-hidden="true" style="position: absolute; width: 0; height: 0; overflow: hidden;" version="1.1" xmlns="http://www.w3.org/2000/svg" xmlns:xlink="http://www.w3.org/1999/xlink">
<defs>
<symbol id="icon-logo" viewBox="0 0 85 32">
<path d="M14.104 0.516c-0.165 0-0.34 0-0.503 0.020-1.899 0.158-3.645 0.965-4.888 2.435-1.353 1.6-1.68 3.285-1.664 5.322l-3.619-0.006c-0.162-0-0.33-0.005-0.5-0.009-0.472-0.013-0.963-0.027-1.405 0.054-0.267 0.049-0.499 0.179-0.687 0.374-0.328 0.342-0.336 0.774-0.315 1.216 0.034 0.698 0.094 1.396 0.153 2.094 0.033 0.379 0.065 0.759 0.093 1.138l0.601 7.761 0.292 3.748c0.014 0.185 0.026 0.372 0.037 0.559 0.041 0.671 0.083 1.351 0.26 1.993 0.306 1.091 0.912 2.074 1.75 2.838 0.732 0.665 1.617 1.139 2.576 1.38 0.811 0.196 1.754 0.174 2.639 0.153 0.264-0.006 0.522-0.012 0.77-0.012l9.127 0c0.232 0 0.472 0.006 0.714 0.011 0.786 0.019 1.605 0.038 2.34-0.133 1.033-0.24 2.079-0.808 2.833-1.555 0.702-0.696 1.263-1.626 1.508-2.586 0.187-0.735 0.235-1.541 0.28-2.323 0.015-0.252 0.029-0.502 0.048-0.746l0.399-5.14 0.498-6.311c0.024-0.312 0.055-0.627 0.087-0.943 0.068-0.684 0.136-1.374 0.134-2.050-0.001-0.416-0.089-0.804-0.387-1.113-0.205-0.213-0.541-0.317-0.824-0.363-0.425-0.069-0.892-0.057-1.343-0.045-0.167 0.004-0.332 0.009-0.491 0.009-1.138-0.002-2.277 0.002-3.415 0.012l-0.049 0.001c0.027-2.181-0.459-4.052-2.027-5.647-1.31-1.357-3.113-2.128-4.999-2.136l-0.024 0zM21.001 12.956l0.061 0.004c0.002 0.004 0.003 0.008 0.005 0.012 0.001 0.002 0.002 0.004 0.002 0.005 0.003 0.007 0.005 0.012 0.007 0.017l0.002 0.006c0.011 0.025 0.013 0.030 0.013 0.071-0.020 2.674-0.735 6.117-2.634 8.076-1.758 1.814-4.487 2.704-6.976 2.753 1.159-2.181 3.022-4.249 4.944-5.784 0.297-0.237 0.608-0.452 0.92-0.667 0.2-0.138 0.401-0.276 0.598-0.421 0.191-0.14 0.449-0.331 0.476-0.587 0.025-0.236-0.101-0.418-0.248-0.587-0.207-0.12-0.358-0.17-0.594-0.101-0.335 0.098-0.673 0.346-0.977 0.57-0.081 0.059-0.159 0.117-0.235 0.169-2.464 1.745-4.511 4.013-5.996 6.642-0.050-2.139 0.437-3.931 1.749-5.651 1.969-2.582 5.737-4.1 8.882-4.528zM1.873 9.627l24.447-0c-0.087 0.823-0.143 1.654-0.199 2.484-0.031 0.462-0.062 0.924-0.099 1.384l-0.658 8.249-0.246 3.040c-0.011 0.132-0.021 0.265-0.031 0.398-0.040 0.524-0.079 1.054-0.181 1.567-0.104 0.527-0.306 0.985-0.579 1.445-0.105 0.16-0.22 0.314-0.343 0.461-0.709 0.847-1.872 1.478-2.977 1.561-0.602 0.045-1.221 0.034-1.834 0.023-0.265-0.005-0.53-0.010-0.791-0.010l-9.108 0c-0.195 0-0.393 0.004-0.592 0.008-0.612 0.013-1.239 0.026-1.827-0.076-0.772-0.135-1.493-0.475-2.087-0.984-0.712-0.601-1.223-1.405-1.465-2.305-0.165-0.596-0.206-1.232-0.247-1.856-0.010-0.157-0.020-0.313-0.032-0.467l-0.24-3.093-0.911-11.828zM21.544 11.523l-0.018 0.002c-3.711 0.429-7.936 1.956-10.334 4.962-1.542 1.932-2.384 4.445-2.106 6.92 0.061 0.543 0.184 1.063 0.362 1.579-0.020 0.051-0.045 0.113-0.072 0.183-0.305 0.765-1.012 2.545-0.766 3.071 0.071 0.152 0.216 0.254 0.374 0.304 0.065 0.020 0.13 0.032 0.198 0.040 0.208-0.034 0.4-0.077 0.525-0.263 0.134-0.2 0.272-0.681 0.39-1.091 0.056-0.196 0.108-0.376 0.152-0.502 0.152-0.433 0.326-0.859 0.498-1.284l0.002-0.005c0.020-0.050 0.040-0.1 0.061-0.149 3.060 0.009 6.328-0.949 8.542-3.133 2.476-2.443 3.099-6.383 3.104-9.717 0-0.263-0.018-0.575-0.21-0.776-0.118-0.124-0.296-0.161-0.461-0.157-0.080 0.002-0.159 0.010-0.239 0.019zM13.806 1.853c0.118-0.007 0.238-0.014 0.356-0.013 1.454 0.010 2.909 0.66 3.93 1.685 1.391 1.395 1.675 2.875 1.678 4.768l-11.318 0.005c-0.046-1.627 0.216-3.114 1.284-4.399 1.026-1.234 2.489-1.904 4.070-2.046z"></path>
<path d="M21.063 12.96l-0.061-0.004c-3.145 0.429-6.913 1.946-8.882 4.528-1.312 1.721-1.799 3.512-1.749 5.652 1.484-2.629 3.532-4.897 5.996-6.642 0.075-0.053 0.154-0.11 0.235-0.169 0.305-0.224 0.642-0.472 0.977-0.57 0.236-0.069 0.387-0.019 0.594 0.101 0.148 0.168 0.273 0.351 0.248 0.587-0.027 0.256-0.285 0.446-0.476 0.587-0.197 0.144-0.398 0.283-0.598 0.421-0.311 0.215-0.622 0.429-0.92 0.667-1.922 1.536-3.785 3.604-4.944 5.784 2.489-0.049 5.218-0.939 6.976-2.753 1.898-1.959 2.614-5.402 2.633-8.076 0.001-0.041-0.001-0.046-0.013-0.071-0.003-0.006-0.006-0.014-0.010-0.023-0.002-0.005-0.004-0.011-0.007-0.017zM21.526 11.525l0.018-0.002c0.079-0.008 0.159-0.017 0.239-0.019 0.165-0.004 0.343 0.034 0.461 0.157 0.192 0.201 0.21 0.513 0.21 0.776-0.005 3.334-0.629 7.274-3.104 9.717-2.214 2.184-5.482 3.142-8.542 3.133-0.020 0.050-0.040 0.099-0.061 0.149l-0.002 0.005c-0.173 0.425-0.346 0.851-0.498 1.284-0.045 0.127-0.096 0.307-0.152 0.502-0.118 0.411-0.255 0.891-0.39 1.091-0.125 0.186-0.317 0.229-0.525 0.263-0.067-0.008-0.133-0.020-0.198-0.040-0.157-0.050-0.302-0.152-0.374-0.304-0.246-0.526 0.462-2.305 0.766-3.071 0.028-0.070 0.052-0.131 0.072-0.183-0.177-0.517-0.3-1.036-0.362-1.579-0.278-2.475 0.564-4.988 2.106-6.92 2.399-3.006 6.623-4.532 10.334-4.962z"></path>
<path d="M21.544 11.523l-0.018 0.002c-3.711 0.429-7.936 1.956-10.334 4.962-1.542 1.932-2.384 4.445-2.106 6.92 0.061 0.543 0.184 1.063 0.362 1.579-0.020 0.051-0.045 0.113-0.072 0.183-0.305 0.765-1.012 2.545-0.766 3.071 0.071 0.152 0.216 0.254 0.374 0.304 0.065 0.020 0.13 0.032 0.197 0.040 0.208-0.034 0.4-0.077 0.525-0.263 0.134-0.2 0.272-0.68 0.39-1.091 0.056-0.196 0.108-0.376 0.152-0.503 0.152-0.433 0.326-0.859 0.498-1.284 0.001-0.002 0.001-0.003 0.002-0.005 0.020-0.050 0.040-0.1 0.061-0.149 3.060 0.009 6.328-0.949 8.542-3.133 2.476-2.443 3.099-6.383 3.104-9.717 0-0.263-0.018-0.575-0.21-0.776-0.118-0.124-0.296-0.161-0.461-0.157-0.080 0.002-0.159 0.010-0.239 0.019zM21.001 12.956l0.061 0.004c0.002 0.006 0.005 0.012 0.007 0.017 0.004 0.009 0.007 0.017 0.010 0.023 0.011 0.025 0.013 0.030 0.013 0.071-0.020 2.674-0.735 6.117-2.634 8.076-1.758 1.814-4.487 2.704-6.976 2.753 1.159-2.181 3.022-4.249 4.944-5.784 0.297-0.237 0.608-0.452 0.92-0.667 0.2-0.138 0.401-0.277 0.598-0.421 0.191-0.14 0.449-0.331 0.476-0.587 0.025-0.236-0.101-0.418-0.248-0.587-0.207-0.12-0.358-0.17-0.594-0.101-0.335 0.098-0.673 0.346-0.977 0.57-0.081 0.059-0.159 0.117-0.235 0.169-2.464 1.745-4.511 4.013-5.996 6.642-0.050-2.139 0.437-3.931 1.749-5.651 1.969-2.582 5.737-4.1 8.882-4.528z"></path>
<path d="M69.327 20.586c-0.093-2.629-2.299-4.684-4.927-4.592s-4.685 2.299-4.592 4.927c0.093 2.629 2.299 4.685 4.928 4.592s4.684-2.299 4.591-4.927zM64.565 17.423c0.767 0.031 1.388 0.215 1.973 0.733 0.697 0.616 1.085 1.507 1.136 2.43s-0.239 1.859-0.868 2.547c-0.574 0.629-1.291 0.91-2.13 0.952-0.766-0.008-1.398-0.127-2.002-0.63-0.706-0.587-1.105-1.456-1.18-2.363-0.078-0.943 0.169-1.918 0.795-2.642 0.621-0.717 1.355-0.964 2.276-1.027z"></path>
<path d="M56.090 20.191c-0.313-2.614-2.688-4.477-5.301-4.159-2.606 0.317-4.463 2.685-4.151 5.292s2.676 4.468 5.284 4.161c2.614-0.309 4.482-2.68 4.168-5.294zM50.941 17.462c0.763-0.062 1.453 0.018 2.097 0.461 0.723 0.497 1.178 1.265 1.328 2.123 0.171 0.974 0.010 2.016-0.576 2.828-0.513 0.711-1.154 1.064-2.008 1.2-0.78 0.040-1.469-0.008-2.126-0.472-0.709-0.499-1.186-1.263-1.325-2.119-0.159-0.944 0.031-2.030 0.595-2.815 0.495-0.69 1.187-1.072 2.015-1.205z"></path>
<path d="M79.311 15.988c-0.024 0.001-0.047 0.002-0.070 0.005-1.199 0.142-2.278 0.722-3.032 1.673-0.86 1.086-1.155 2.464-0.986 3.826 0.139 1.196 0.751 2.287 1.7 3.030 1.124 0.873 2.548 1.095 3.937 0.905 0.803-0.11 2.011-0.495 2.524-1.163 0.144-0.188 0.217-0.417 0.184-0.654-0.023-0.166-0.097-0.325-0.233-0.427-0.158-0.117-0.367-0.132-0.554-0.095-0.26 0.051-0.493 0.211-0.713 0.364-0.047 0.032-0.093 0.064-0.138 0.094-0.97 0.504-2.045 0.741-3.111 0.395-0.759-0.25-1.386-0.794-1.738-1.512-0.184-0.367-0.275-0.756-0.357-1.155h4.576c0.19 0 0.395 0.007 0.605 0.014 0.542 0.017 1.123 0.036 1.602-0.050 0.136-0.024 0.267-0.097 0.366-0.194 0.225-0.219 0.265-0.529 0.258-0.829-0.026-1.146-0.564-2.277-1.398-3.053-0.963-0.896-2.124-1.232-3.419-1.174zM79.452 17.42c0.695-0.081 1.395 0.096 1.967 0.498 0.684 0.486 1.043 1.177 1.187 1.989-0.58 0.007-1.161 0.005-1.741 0.004-0.29-0.001-0.58-0.002-0.87-0.001l-3.218 0.004c0.147-0.495 0.318-0.945 0.635-1.36 0.51-0.668 1.216-1.026 2.040-1.135z"></path>
<path d="M53.827 12.585c1.717-0.041 3.444-0.003 5.163-0.006 0.979-0.002 2.229-0.081 3.179 0.017 0.153 0.016 0.275 0.059 0.391 0.161 0.165 0.145 0.276 0.362 0.281 0.583 0.005 0.2-0.117 0.428-0.261 0.562-0.11 0.102-0.241 0.142-0.386 0.166-0.396 0.064-0.832 0.026-1.234 0.026l-2.132-0.004-0.001 7.913c0.003 0.667 0.087 2.121-0.013 2.689-0.031 0.178-0.096 0.356-0.219 0.492-0.132 0.146-0.314 0.22-0.509 0.225-0.205 0.005-0.405-0.040-0.553-0.189-0.174-0.174-0.238-0.431-0.259-0.669-0.040-0.439-0.003-0.904 0.002-1.345 0.008-0.653 0.002-1.306 0.001-1.959l0.005-7.157c-0.709 0.003-3.164 0.116-3.667-0.112-0.184-0.083-0.299-0.212-0.365-0.403-0.071-0.203-0.039-0.42 0.064-0.606 0.12-0.218 0.281-0.312 0.512-0.383z"></path>
<path d="M42.593 15.994c0.638-0.036 1.261 0.005 1.881 0.171 0.654 0.175 1.654 0.561 1.993 1.182 0.093 0.171 0.141 0.375 0.076 0.564-0.067 0.193-0.25 0.34-0.435 0.416-0.538 0.22-1.211-0.521-1.717-0.711-0.823-0.31-1.813-0.293-2.613 0.081-0.736 0.343-1.264 0.994-1.538 1.749-0.318 0.877-0.345 2.020 0.059 2.875 0.374 0.792 1.063 1.345 1.879 1.634 0.934 0.331 1.908 0.155 2.781-0.264 0.271-0.147 0.516-0.342 0.825-0.406 0.159-0.033 0.317-0.015 0.452 0.079 0.167 0.116 0.302 0.345 0.325 0.547 0.021 0.19-0.053 0.364-0.171 0.51-0.511 0.633-1.648 0.951-2.422 1.046-1.343 0.165-2.742-0.105-3.817-0.962-1.010-0.79-1.653-1.959-1.779-3.235-0.133-1.271 0.24-2.544 1.038-3.543 0.809-0.995 1.913-1.597 3.185-1.733z"></path>
<path d="M71.28 13.591c0.027-0.001 0.053-0.003 0.080-0.003 0.238-0.008 0.477 0.056 0.646 0.232 0.401 0.419 0.242 1.833 0.237 2.411 0.547 0.003 1.877-0.167 2.287 0.198 0.148 0.132 0.209 0.315 0.209 0.511 0.001 0.189-0.048 0.371-0.189 0.504-0.383 0.363-1.766 0.22-2.308 0.217 0.005 1.162-0.152 4.745 0.206 5.627 0.579 1.426 1.834 0.172 2.55 0.509 0.153 0.072 0.279 0.225 0.335 0.383 0.081 0.226 0.009 0.428-0.084 0.635-0.016 0.018-0.032 0.035-0.048 0.052-0.432 0.451-1.245 0.559-1.842 0.567-0.692 0.010-1.347-0.108-1.858-0.62-0.37-0.37-0.599-0.878-0.712-1.384-0.174-0.781-0.102-1.646-0.102-2.442l0.002-3.326c-0.42-0-0.84-0.003-1.26-0.010-0.069-0.043-0.137-0.088-0.198-0.143-0.166-0.149-0.241-0.372-0.247-0.592-0.005-0.184 0.051-0.365 0.189-0.493 0.339-0.314 1.085-0.201 1.517-0.194-0.001-0.605-0.134-1.69 0.094-2.223 0.102-0.236 0.268-0.322 0.495-0.417z"></path>
<path d="M37.966 13.365c-0.724-0.071-4.265-0.046-5.493-0.028-0.226 0.003-0.435 0.019-0.619 0.032-0.157 0.012-0.295 0.022-0.409 0.022 0 0-0.489 0.115-0.648 0.335-0.104 0.144-0.139 0.327-0.164 0.499-0.131 0.915-0.208 1.848-0.285 2.778-0.040 0.49-0.081 0.978-0.129 1.463l-0.466 4.702c-0.012 0.126-0.034 0.297-0.058 0.492-0.079 0.63-0.188 1.502-0.117 1.85 0.039 0.192 0.141 0.351 0.311 0.452 0.168 0.099 0.358 0.155 0.549 0.188h0.002c0.395-0.001 0.991 0.005 1.657 0.012 1.38 0.014 4.89 0.032 5.706-0.003 0.163-0.007 0.335-0.021 0.489-0.079 0.206-0.078 0.375-0.227 0.457-0.435 0.082-0.209 0.064-0.443-0.029-0.644-0.094-0.203-0.22-0.312-0.432-0.38h-7.054c0.118-1.039 0.223-2.078 0.316-3.119l0.083-0.846 0.008-0.084c0.055 0.001 0.128 0.002 0.214 0.003 0.718 0.011 4.215 0.036 4.661-0.030 0.163-0.024 0.316-0.066 0.436-0.186 0.155-0.156 0.219-0.372 0.206-0.589-0.011-0.184-0.092-0.384-0.232-0.508-0.093-0.082-0.209-0.136-0.332-0.153-0.416-0.061-3.525-0.044-4.31-0.034-0.21 0.003-0.385 0.005-0.498 0.005l0.358-4.219h3.807c0.194 0 0.396 0.007 0.602 0.013 0.497 0.016 1.012 0.032 1.474-0.039 0.164-0.025 0.305-0.081 0.424-0.201 0.146-0.147 0.226-0.368 0.215-0.574-0.011-0.21-0.124-0.41-0.289-0.539-0.125-0.098-0.252-0.142-0.409-0.158z"></path>
</symbol>
</defs>
</svg>
